<mxfile host="app.diagrams.net" agent="Mozilla/5.0 (Windows NT 10.0; Win64; x64) AppleWebKit/537.36 (KHTML, like Gecko) Chrome/130.0.0.0 Safari/537.36 Edg/130.0.0.0" version="24.8.2">
  <diagram name="Trang-1" id="ICltrGhtBWJSLPp3Hl0J">
    <mxGraphModel dx="1480" dy="623" grid="1" gridSize="10" guides="1" tooltips="1" connect="1" arrows="1" fold="1" page="1" pageScale="1" pageWidth="827" pageHeight="1169" math="0" shadow="0">
      <root>
        <mxCell id="0" />
        <mxCell id="1" parent="0" />
        <mxCell id="KXB6cN6jaROzn-zE4YkT-27" value="" style="rounded=0;whiteSpace=wrap;html=1;fillColor=#A3D4FF;" vertex="1" parent="1">
          <mxGeometry x="240" y="120" width="540" height="650" as="geometry" />
        </mxCell>
        <mxCell id="KXB6cN6jaROzn-zE4YkT-1" value="Player" style="shape=umlActor;verticalLabelPosition=bottom;verticalAlign=top;html=1;outlineConnect=0;" vertex="1" parent="1">
          <mxGeometry x="120" y="360" width="30" height="60" as="geometry" />
        </mxCell>
        <mxCell id="KXB6cN6jaROzn-zE4YkT-3" value="KoiBreedingGame&lt;div&gt;system&lt;/div&gt;" style="text;html=1;align=center;verticalAlign=middle;whiteSpace=wrap;rounded=0;" vertex="1" parent="1">
          <mxGeometry x="435" y="130" width="120" height="30" as="geometry" />
        </mxCell>
        <mxCell id="KXB6cN6jaROzn-zE4YkT-4" value="Đăng kí" style="ellipse;whiteSpace=wrap;html=1;" vertex="1" parent="1">
          <mxGeometry x="354" y="170" width="70" height="40" as="geometry" />
        </mxCell>
        <mxCell id="KXB6cN6jaROzn-zE4YkT-9" value="Nạp tiền" style="ellipse;whiteSpace=wrap;html=1;" vertex="1" parent="1">
          <mxGeometry x="450" y="230" width="70" height="40" as="geometry" />
        </mxCell>
        <mxCell id="KXB6cN6jaROzn-zE4YkT-10" value="Tìm kiếm thông tin cá Koi" style="ellipse;whiteSpace=wrap;html=1;" vertex="1" parent="1">
          <mxGeometry x="354" y="290" width="70" height="60" as="geometry" />
        </mxCell>
        <mxCell id="KXB6cN6jaROzn-zE4YkT-11" value="Mua hồ" style="ellipse;whiteSpace=wrap;html=1;" vertex="1" parent="1">
          <mxGeometry x="460" y="370" width="70" height="40" as="geometry" />
        </mxCell>
        <mxCell id="KXB6cN6jaROzn-zE4YkT-12" value="Lai tạo cá Koi mới" style="ellipse;whiteSpace=wrap;html=1;" vertex="1" parent="1">
          <mxGeometry x="360" y="410" width="70" height="50" as="geometry" />
        </mxCell>
        <mxCell id="KXB6cN6jaROzn-zE4YkT-13" value="Sinh sản thủ công" style="ellipse;whiteSpace=wrap;html=1;" vertex="1" parent="1">
          <mxGeometry x="460" y="490" width="90" height="60" as="geometry" />
        </mxCell>
        <mxCell id="KXB6cN6jaROzn-zE4YkT-14" value="Sinh sản tự động" style="ellipse;whiteSpace=wrap;html=1;" vertex="1" parent="1">
          <mxGeometry x="360" y="550" width="80" height="55" as="geometry" />
        </mxCell>
        <mxCell id="KXB6cN6jaROzn-zE4YkT-15" value="Mua các vật phẩm nâng cấp hồ" style="ellipse;whiteSpace=wrap;html=1;" vertex="1" parent="1">
          <mxGeometry x="470" y="620" width="90" height="70" as="geometry" />
        </mxCell>
        <mxCell id="KXB6cN6jaROzn-zE4YkT-16" value="Trao đổi hoặc bán cá Koi" style="ellipse;whiteSpace=wrap;html=1;" vertex="1" parent="1">
          <mxGeometry x="354" y="690" width="90" height="50" as="geometry" />
        </mxCell>
        <mxCell id="KXB6cN6jaROzn-zE4YkT-17" value="" style="endArrow=none;html=1;rounded=0;exitX=0.5;exitY=0;exitDx=0;exitDy=0;exitPerimeter=0;entryX=0;entryY=0.5;entryDx=0;entryDy=0;" edge="1" parent="1" source="KXB6cN6jaROzn-zE4YkT-1" target="KXB6cN6jaROzn-zE4YkT-4">
          <mxGeometry width="50" height="50" relative="1" as="geometry">
            <mxPoint x="210" y="320" as="sourcePoint" />
            <mxPoint x="260" y="270" as="targetPoint" />
            <Array as="points">
              <mxPoint x="205" y="200" />
            </Array>
          </mxGeometry>
        </mxCell>
        <mxCell id="KXB6cN6jaROzn-zE4YkT-18" value="" style="endArrow=none;html=1;rounded=0;exitX=0.5;exitY=0;exitDx=0;exitDy=0;exitPerimeter=0;entryX=0;entryY=0.5;entryDx=0;entryDy=0;" edge="1" parent="1" source="KXB6cN6jaROzn-zE4YkT-1" target="KXB6cN6jaROzn-zE4YkT-9">
          <mxGeometry width="50" height="50" relative="1" as="geometry">
            <mxPoint x="240" y="320" as="sourcePoint" />
            <mxPoint x="290" y="270" as="targetPoint" />
            <Array as="points">
              <mxPoint x="250" y="260" />
            </Array>
          </mxGeometry>
        </mxCell>
        <mxCell id="KXB6cN6jaROzn-zE4YkT-19" value="" style="endArrow=none;html=1;rounded=0;exitX=0.5;exitY=0;exitDx=0;exitDy=0;exitPerimeter=0;entryX=0;entryY=0.5;entryDx=0;entryDy=0;" edge="1" parent="1" source="KXB6cN6jaROzn-zE4YkT-1" target="KXB6cN6jaROzn-zE4YkT-10">
          <mxGeometry width="50" height="50" relative="1" as="geometry">
            <mxPoint x="230" y="380" as="sourcePoint" />
            <mxPoint x="280" y="330" as="targetPoint" />
          </mxGeometry>
        </mxCell>
        <mxCell id="KXB6cN6jaROzn-zE4YkT-20" value="" style="endArrow=none;html=1;rounded=0;exitX=1;exitY=0.3333333333333333;exitDx=0;exitDy=0;exitPerimeter=0;entryX=0;entryY=0.5;entryDx=0;entryDy=0;" edge="1" parent="1" source="KXB6cN6jaROzn-zE4YkT-1" target="KXB6cN6jaROzn-zE4YkT-11">
          <mxGeometry width="50" height="50" relative="1" as="geometry">
            <mxPoint x="270" y="400" as="sourcePoint" />
            <mxPoint x="320" y="350" as="targetPoint" />
          </mxGeometry>
        </mxCell>
        <mxCell id="KXB6cN6jaROzn-zE4YkT-21" value="" style="endArrow=none;html=1;rounded=0;exitX=0.5;exitY=0.5;exitDx=0;exitDy=0;exitPerimeter=0;entryX=0;entryY=0.5;entryDx=0;entryDy=0;" edge="1" parent="1" source="KXB6cN6jaROzn-zE4YkT-1" target="KXB6cN6jaROzn-zE4YkT-12">
          <mxGeometry width="50" height="50" relative="1" as="geometry">
            <mxPoint x="190" y="520" as="sourcePoint" />
            <mxPoint x="240" y="470" as="targetPoint" />
          </mxGeometry>
        </mxCell>
        <mxCell id="KXB6cN6jaROzn-zE4YkT-22" value="" style="endArrow=none;html=1;rounded=0;exitX=0.5;exitY=0.5;exitDx=0;exitDy=0;exitPerimeter=0;entryX=0;entryY=0.5;entryDx=0;entryDy=0;" edge="1" parent="1" source="KXB6cN6jaROzn-zE4YkT-1" target="KXB6cN6jaROzn-zE4YkT-13">
          <mxGeometry width="50" height="50" relative="1" as="geometry">
            <mxPoint x="200" y="530" as="sourcePoint" />
            <mxPoint x="250" y="480" as="targetPoint" />
            <Array as="points">
              <mxPoint x="270" y="470" />
            </Array>
          </mxGeometry>
        </mxCell>
        <mxCell id="KXB6cN6jaROzn-zE4YkT-23" value="" style="endArrow=none;html=1;rounded=0;exitX=0;exitY=0.5;exitDx=0;exitDy=0;" edge="1" parent="1" source="KXB6cN6jaROzn-zE4YkT-14">
          <mxGeometry width="50" height="50" relative="1" as="geometry">
            <mxPoint x="110" y="530" as="sourcePoint" />
            <mxPoint x="130" y="450" as="targetPoint" />
            <Array as="points">
              <mxPoint x="230" y="530" />
            </Array>
          </mxGeometry>
        </mxCell>
        <mxCell id="KXB6cN6jaROzn-zE4YkT-24" value="" style="endArrow=none;html=1;rounded=0;exitX=0;exitY=0.5;exitDx=0;exitDy=0;" edge="1" parent="1" source="KXB6cN6jaROzn-zE4YkT-15">
          <mxGeometry width="50" height="50" relative="1" as="geometry">
            <mxPoint x="140" y="640" as="sourcePoint" />
            <mxPoint x="130" y="450" as="targetPoint" />
            <Array as="points">
              <mxPoint x="230" y="630" />
            </Array>
          </mxGeometry>
        </mxCell>
        <mxCell id="KXB6cN6jaROzn-zE4YkT-25" value="" style="endArrow=none;html=1;rounded=0;exitX=0;exitY=0.5;exitDx=0;exitDy=0;" edge="1" parent="1" source="KXB6cN6jaROzn-zE4YkT-16">
          <mxGeometry width="50" height="50" relative="1" as="geometry">
            <mxPoint x="150" y="490" as="sourcePoint" />
            <mxPoint x="130" y="450" as="targetPoint" />
            <Array as="points">
              <mxPoint x="200" y="715" />
            </Array>
          </mxGeometry>
        </mxCell>
        <mxCell id="KXB6cN6jaROzn-zE4YkT-28" value="&lt;font style=&quot;font-size: 12px;&quot;&gt;&amp;lt;&amp;lt;Extend&amp;gt;&amp;gt;&lt;/font&gt;" style="html=1;verticalAlign=bottom;endArrow=open;dashed=1;endSize=8;curved=0;rounded=0;exitX=1;exitY=0.5;exitDx=0;exitDy=0;entryX=1;entryY=0.5;entryDx=0;entryDy=0;" edge="1" parent="1" source="KXB6cN6jaROzn-zE4YkT-16" target="KXB6cN6jaROzn-zE4YkT-10">
          <mxGeometry relative="1" as="geometry">
            <mxPoint x="610" y="450" as="sourcePoint" />
            <mxPoint x="530" y="450" as="targetPoint" />
            <Array as="points">
              <mxPoint x="720" y="715" />
              <mxPoint x="710" y="320" />
            </Array>
          </mxGeometry>
        </mxCell>
        <mxCell id="KXB6cN6jaROzn-zE4YkT-29" value="&amp;lt;&amp;lt;Extend&amp;gt;&amp;gt;" style="html=1;verticalAlign=bottom;endArrow=open;dashed=1;endSize=8;curved=0;rounded=0;exitX=1;exitY=0.5;exitDx=0;exitDy=0;entryX=1;entryY=0.5;entryDx=0;entryDy=0;" edge="1" parent="1" source="KXB6cN6jaROzn-zE4YkT-15" target="KXB6cN6jaROzn-zE4YkT-11">
          <mxGeometry relative="1" as="geometry">
            <mxPoint x="660" y="584" as="sourcePoint" />
            <mxPoint x="580" y="584" as="targetPoint" />
            <Array as="points">
              <mxPoint x="640" y="655" />
              <mxPoint x="640" y="390" />
            </Array>
          </mxGeometry>
        </mxCell>
        <mxCell id="KXB6cN6jaROzn-zE4YkT-30" value="Nhập thông tin tài khoản" style="ellipse;whiteSpace=wrap;html=1;" vertex="1" parent="1">
          <mxGeometry x="555" y="160" width="120" height="60" as="geometry" />
        </mxCell>
        <mxCell id="KXB6cN6jaROzn-zE4YkT-31" value="&amp;lt;&amp;lt;Include&amp;gt;&amp;gt;" style="html=1;verticalAlign=bottom;endArrow=open;dashed=1;endSize=8;curved=0;rounded=0;exitX=1;exitY=0.5;exitDx=0;exitDy=0;entryX=0;entryY=0.5;entryDx=0;entryDy=0;" edge="1" parent="1" source="KXB6cN6jaROzn-zE4YkT-4" target="KXB6cN6jaROzn-zE4YkT-30">
          <mxGeometry relative="1" as="geometry">
            <mxPoint x="610" y="460" as="sourcePoint" />
            <mxPoint x="530" y="460" as="targetPoint" />
          </mxGeometry>
        </mxCell>
      </root>
    </mxGraphModel>
  </diagram>
</mxfile>
